# xmcd
#
# Track frame offsets:
#	150
#	20052
#	37111
#	56406
#	69208
#	83775
#	98248
#	108515
#	129085
#	142075
#	159246
#	184189
#
# Disc length: 2659 seconds
#
# Revision: 0
# Processed by: cddbd v1.5.1PL0 Copyright (c) Steve Scherf et al.
# Submitted via: dBpowerAMP V4.0
#
DISCID=9c0a610c
DTITLE=Aerosmith - Honkin' On Bobo
DYEAR=2004
DGENRE=Blues
TTITLE0=Back Back Train
TTITLE1=Road Runner
TTITLE2=I'm Ready
TTITLE3=Jesus Is On The Main Line
TTITLE4=Never Loved A Girl
TTITLE5=Eyesight To The Blind
TTITLE6=Shame, Shame, Shame
TTITLE7=Stop Messin' Around
TTITLE8=Temperature
TTITLE9=The Grind
TTITLE10=You Gotta Move
TTITLE11=Baby, Please Don't Go
EXTD=
EXTT0=
EXTT1=
EXTT2=
EXTT3=
EXTT4=
EXTT5=
EXTT6=
EXTT7=
EXTT8=
EXTT9=
EXTT10=
EXTT11=
PLAYORDER=
